<?xml version="1.0" encoding="UTF-8" standalone="no"?>
<!-- Created with Inkscape (http://www.inkscape.org/) -->

<svg
   xmlns:dc="http://purl.org/dc/elements/1.1/"
   xmlns:cc="http://creativecommons.org/ns#"
   xmlns:rdf="http://www.w3.org/1999/02/22-rdf-syntax-ns#"
   xmlns:svg="http://www.w3.org/2000/svg"
   xmlns="http://www.w3.org/2000/svg"
   xmlns:sodipodi="http://sodipodi.sourceforge.net/DTD/sodipodi-0.dtd"
   xmlns:inkscape="http://www.inkscape.org/namespaces/inkscape"
   width="143mm"
   height="30mm"
   viewBox="0 0 506.69272 106.29915"
   id="svg3429"
   version="1.1"
   inkscape:version="0.91 r13725"
   sodipodi:docname="MercysHope.svg">
  <defs
     id="defs3431" />
  <sodipodi:namedview
     id="base"
     pagecolor="#ffffff"
     bordercolor="#666666"
     borderopacity="1.0"
     inkscape:pageopacity="0.0"
     inkscape:pageshadow="2"
     inkscape:zoom="1.4"
     inkscape:cx="392.53846"
     inkscape:cy="69.429715"
     inkscape:document-units="px"
     inkscape:current-layer="layer1"
     showgrid="false"
     inkscape:window-width="1440"
     inkscape:window-height="876"
     inkscape:window-x="1280"
     inkscape:window-y="148"
     inkscape:window-maximized="1" />
  <metadata
     id="metadata3434">
    <rdf:RDF>
      <cc:Work
         rdf:about="">
        <dc:format>image/svg+xml</dc:format>
        <dc:type
           rdf:resource="http://purl.org/dc/dcmitype/StillImage" />
        <dc:title />
      </cc:Work>
    </rdf:RDF>
  </metadata>
  <g
     inkscape:label="Layer 1"
     inkscape:groupmode="layer"
     id="layer1"
     transform="translate(0,-946.06369)">
    <path
       style="fill:#a0d3e5"
       d="m 300.79965,1046.0716 c -11.45754,-4.4409 -12.15398,-4.898 -17.54702,-10.7708 -10.84962,-11.8149 -15.92682,-19.9592 -15.87646,-38.2293 0.0378,-13.729 2.77974,-17.83797 10.08782,-26.75653 6.90278,-8.42394 10.84795,-14.77259 23.00963,-16.92314 5.79244,-1.02428 12.83436,-0.85233 16.27186,-0.86419 7.62359,-0.0263 19.6449,3.76294 23.70251,5.93451 6.79326,3.63564 10.96442,11.54584 16.3742,21.0037 l 5.451,9.5299 2.0559,15.07445 -1.25813,10.3583 -5.26384,8.8977 c -2.45857,4.1557 -18.48181,23.8352 -39.79933,24.7567 -10.21917,0.4418 -10.75392,0.4904 -17.20814,-2.0113 z"
       id="path3406"
       inkscape:connector-curvature="0"
       sodipodi:nodetypes="sssssssscccsss" />
    <path
       style="fill:#bd9469"
       d="m 299.00057,1045.7839 c -20.56499,-7.5799 -26.33739,-14.1023 -31.97761,-38.4224 -2.5585,-11.03202 -4.25007,-10.95225 -0.54728,-22.0105 6.96545,-20.80211 19.32196,-31.11881 45.18026,-33.22505 17.08042,-1.39125 31.50917,3.45744 39.52785,12.96445 1.85938,2.2045 5.97736,9.46521 8.52791,14.73282 8.17358,16.88078 7.54921,33.59768 -1.01358,47.90928 -6.36012,10.63 -9.4777,13.1735 -20.22135,17.6439 -7.90185,3.288 -9.39152,4.3 -20.59644,4.6861 -10.48768,0.3614 -13.87395,-2.4335 -18.87976,-4.2786 z m 35.21582,-4.4318 c 8.54326,-3.0958 14.08408,-7.8703 20.3533,-17.5383 4.19961,-6.4764 4.39297,-7.2765 4.5313,-18.75 0.12163,-10.08901 -0.34296,-13.17134 -2.93692,-19.48491 -8.08761,-19.68484 -15.05868,-24.95844 -36.37804,-27.51991 -12.06666,-1.44978 -29.61749,4.1054 -36.23133,11.46793 -10.03798,11.17429 -14.04621,23.75151 -11.3743,35.69079 3.98906,17.8251 15.06769,31.5982 28.49572,35.4263 4.02565,1.1477 7.88186,2.6233 8.56936,3.2793 1.9979,1.9062 16.82923,0.3791 24.97091,-2.5712 z m -20.82421,-1.4512 c -3.21324,-1.8745 -7.44486,-14.4268 -8.61277,-25.5481 -1.2174,-11.5926 -2.01126,-12.4988 -12.04718,-13.7527 -5.42955,-0.67841 -7.87774,-1.7199 -10.71708,-4.55923 -3.45854,-3.45854 -3.64907,-4.16559 -3.16615,-11.74959 0.45544,-7.15263 1.00431,-8.5847 4.83015,-12.60255 5.32185,-5.58893 9.74298,-7.55541 19.4573,-8.65446 6.39472,-0.72348 7.88472,-0.5011 9.85687,1.47115 1.50346,1.50352 4.15712,2.33547 7.51964,2.35748 6.95302,0.0455 11.49295,3.28314 14.52582,10.35903 3.02868,7.06615 5.71622,10.23196 8.68615,10.23196 2.56477,0 6.14555,3.20463 6.14555,5.49998 0,0.86427 -1.64054,4.05847 -3.64564,7.09823 -4.19883,6.3654 -6.54943,15.617 -3.7111,14.6063 2.87917,-1.0253 6.10674,1.444 6.10674,4.672 0,3.8405 -3.62798,11.5592 -5.83031,12.4043 -2.70611,1.0384 -5.20751,-0.5193 -6.35321,-3.9564 -1.06197,-3.1859 -1.10644,-3.1611 -5.80536,3.2401 -7.12031,9.6998 -11.74957,12.085 -17.23942,8.8825 z"
       id="path3404"
       inkscape:connector-curvature="0"
       sodipodi:nodetypes="sssssssssssssssssssssssssssssssssssssss" />
    <path
       style="fill:#643f1a;fill-opacity:1"
       d="m 301.12048,1049.6777 c -19.71326,-8.56 -20.22453,-8.9345 -27.5956,-20.2147 -3.19975,-4.8967 -5.49914,-10.4489 -6.85931,-16.5625 -1.12532,-5.0582 -2.55208,-9.1966 -3.17057,-9.1966 -0.61848,0 -1.12452,-2.8125 -1.12452,-6.25001 0,-3.4375 0.45605,-6.25 1.01343,-6.25 0.55739,0 2.03656,-3.41556 3.28704,-7.59014 1.25049,-4.17458 4.38189,-10.39599 6.95867,-13.82537 4.88569,-6.50223 15.42502,-13.98815 21.86586,-15.53095 2.0625,-0.49404 4.53958,-1.52382 5.50462,-2.2884 1.05459,-0.83552 7.28842,-1.37898 15.625,-1.36216 13.67099,0.0276 13.99617,0.0963 22.62038,4.78011 4.8125,2.61368 9.27204,6.08957 11.15639,7.88 4.63638,4.40527 15.71861,24.29767 15.71861,28.9992 0,2.08459 0.5625,4.13781 1.25,4.56271 1.62676,1.00539 1.62676,11.49461 0,12.50001 -0.6875,0.4249 -1.25,2.4827 -1.25,4.5728 0,4.2013 -7.02411,16.7672 -13.05293,23.3513 -4.62246,5.0482 -13.1621,9.5724 -22.81369,12.0863 -8.23033,2.1437 -24.53955,2.3332 -29.13338,0.3384 z m 33.10585,-7.0789 c 8.52083,-3.0873 15.13755,-8.8445 21.58934,-18.785 4.20471,-6.4784 4.39695,-7.2731 4.53532,-18.75 0.12163,-10.08901 -0.34296,-13.17134 -2.93692,-19.48491 -8.78193,-21.37479 -18.7397,-28.26926 -41.29359,-28.5905 -23.57295,-0.33575 -40.71992,12.5198 -45.12117,33.82858 -1.24934,6.04868 -1.26376,9.06162 -0.0689,14.40073 4.01861,17.9571 16.01672,32.7619 29.71624,36.6677 4.04186,1.1524 7.91134,2.6319 8.59884,3.2879 1.9988,1.9071 16.83064,0.3786 24.98085,-2.5745 z m -21.0042,-4.8945 c -3.2582,-3.6003 -6.0196,-12.6017 -7.17095,-23.3754 -1.26831,-11.8681 -2.82465,-13.6677 -12.91033,-14.92778 -9.83669,-1.229 -13.27037,-4.7415 -13.27037,-13.575 0,-12.21023 7.96986,-19.71228 22.88189,-21.53877 6.42632,-0.78713 7.58796,-0.57784 10.14947,1.82857 2.0983,1.97125 3.76635,2.49813 6.07467,1.91878 5.36687,-1.34699 11.58293,2.55228 14.67572,9.20593 3.27027,7.03546 7.14564,11.46326 10.03309,11.46326 1.17097,0 2.87779,0.90218 3.79292,2.00485 1.39818,1.6847 1.32282,2.58293 -0.47194,5.625 -3.63277,6.15746 -5.54329,10.21266 -8.47785,17.99516 -3.08846,8.1905 -12.55587,22.4472 -16.20253,24.3988 -3.46868,1.8564 -6.84067,1.4773 -9.10379,-1.0234 z m 12.89835,-10.0944 c 0,-0.5664 1.67726,-3.5051 3.72725,-6.5304 2.6028,-3.8412 3.73412,-7.0328 3.75,-10.5793 0.0179,-3.9942 0.82345,-5.8457 3.77275,-8.6713 2.0625,-1.97601 3.75,-4.33271 3.75,-5.23713 0,-0.90441 -2.22609,-3.65553 -4.94688,-6.11359 -2.72078,-2.45807 -6.50118,-6.92604 -8.4009,-9.92884 -4.13971,-6.54348 -7.15457,-8.1605 -11.88547,-6.37478 -3.00725,1.13511 -3.91622,0.86434 -6.99256,-2.08298 -4.27072,-4.09161 -6.0653,-4.18544 -13.25382,-0.69299 -5.86601,2.84993 -7.78255,5.68941 -9.00654,13.34379 -0.89449,5.59385 -0.0751,6.40194 9.48617,9.35572 11.18237,3.45458 12.52161,5.07854 14.52967,17.6186 1.68209,10.5044 4.3692,17.9285 7.13333,19.7084 1.46499,0.9433 8.337,-2.2015 8.337,-3.8152 z m 12.50467,-1.0935 c 0.003,-1.8907 1.14991,-5.316 2.54965,-7.6119 2.09406,-3.4347 2.86839,-3.9059 4.37033,-2.6594 2.34561,1.9467 2.31759,5.381 -0.0817,10.0208 -2.54022,4.9123 -6.84478,5.0699 -6.83823,0.2505 z m 4.37033,-1.5625 c 0.4249,-0.6875 0.21004,-1.25 -0.47746,-1.25 -0.6875,0 -1.59764,0.5625 -2.02254,1.25 -0.4249,0.6875 -0.21004,1.25 0.47746,1.25 0.6875,0 1.59764,-0.5625 2.02254,-1.25 z"
       id="path3402"
       inkscape:connector-curvature="0"
       sodipodi:nodetypes="ssssssssssssssssssssssssssssssssssssssssssssscssssssssssssscssscsssssss" />
    <path
       style="fill:#643f1a;fill-opacity:1"
       d="m 189.82698,1046.2532 c -2.95805,-3.2686 -1.22743,-6.5273 3.94988,-7.4376 2.76818,-0.4867 3.96624,-1.6594 5.10828,-5 1.57541,-4.6083 2.1714,-14.9892 0.86058,-14.9892 -0.42488,0 -2.69446,1.6875 -5.0435,3.75 -2.34907,2.0625 -5.25129,3.75 -6.44939,3.75 -2.98734,0 -7.73464,-3.496 -7.73464,-5.6959 0,-2.4709 -2.37049,-2.2548 -7.13538,0.6505 -2.20571,1.3449 -7.2108,3.3756 -11.12242,4.5128 -9.47795,2.7553 -15.39328,1.1353 -19.37419,-5.306 l -1.21163,-7.046 1.42466,-6.3674 c 3.23163,-14.4435 24.90715,-28.75686 25.4034,-12.28775 l -1.6817,3.52584 -3.48245,0.90302 c -4.88041,1.26559 -5.46756,0.042 -8.53025,5.26809 -6.2935,10.7391 -2.25838,14.1716 10.98352,9.3434 4.3522,-1.5869 8.70143,-2.4014 10.46249,-1.9594 2.9809,0.7481 3.01395,0.6555 3.01395,-8.4486 0,-7.70489 0.41937,-9.58466 2.57317,-11.53382 1.98787,-1.799 3.05409,-2.02035 4.6875,-0.97315 1.6815,1.07805 2.11433,3.30097 2.11433,10.85897 0,5.2269 0.50496,9.6557 1.12214,9.8419 0.61717,0.1862 2.07047,-2.5705 3.22956,-6.126 2.96975,-9.10981 5.73554,-12.9105 9.39501,-12.9105 2.16829,0 3.713,1.1877 5.28369,4.0625 1.82699,3.3439 2.2196,7.158 2.2196,21.5625 0,18.4429 -0.91698,22.167 -6.94148,28.1915 -3.27512,3.2751 -10.10013,3.2025 -13.12473,-0.1397 z M 76.202711,1030.8995 c -2.097535,-1.5338 -2.311348,-4.1214 -2.50467,-30.3125 -0.22969,-31.11838 -0.925881,-36.7606 -4.535874,-36.7606 -1.735826,0 -2.913641,2.00771 -4.84375,8.25667 -2.0228,6.54906 -2.550225,11.67937 -2.550225,24.80626 0,14.44547 -0.290631,16.81267 -2.285926,18.61837 -5.840962,5.286 -8.569474,0.8102 -10.196399,-16.72604 -1.344316,-14.49003 -4.19065,-28.37824 -6.234987,-30.42257 -2.2197,-2.2197 -4.940817,0.47204 -7.040572,6.96456 -1.63572,5.05771 -2.169977,11.39384 -2.255302,26.74725 -0.08381,15.082 -0.541348,20.6372 -1.82737,22.1875 -3.88546,4.6837 -8.085151,0.7304 -11.537015,-10.8604 -1.437988,-4.8285 -3.324213,-9.9417 -4.191609,-11.3628 -0.867396,-1.4211 -2.89041,-6.24005 -4.495586,-10.7088 -1.605175,-4.46875 -3.9326633,-9.8125 -5.1721943,-11.875 -2.730075,-4.54266 -2.863535,-7.32052 -0.448025,-9.32522 3.576053,-2.96786 6.9768313,-0.14176 11.4295973,9.49817 4.046829,8.7611 6.755388,10.91117 6.755388,5.36246 0,-4.34881 4.936744,-20.45205 7.187222,-23.44412 1.203278,-1.59978 3.747609,-3.8473 5.654069,-4.99449 3.279453,-1.97335 3.716636,-1.95133 8.110808,0.40871 2.554485,1.37197 5.384722,4.04137 6.289416,5.93199 0.904695,1.89063 2.036081,3.41125 2.514192,3.37916 0.478112,-0.0321 2.024947,-2.40908 3.437412,-5.28222 3.354317,-6.82311 9.249787,-10.38233 14.694897,-8.87161 3.034134,0.84181 4.687158,2.51527 6.916703,7.00222 3.957074,7.96361 5.105944,18.40683 5.154384,46.85345 0.0383,22.4899 -0.11299,24.1009 -2.376927,25.3125 -3.026527,1.6198 -2.896809,1.6286 -5.647657,-0.3829 z m 160.148819,-2.9064 c -1.8904,-1.8904 -0.60535,-5.5104 2.86757,-8.0781 3.98918,-2.9493 3.93128,-4.8386 -0.14827,-4.8386 -3.91907,0 -11.02424,-3.7946 -13.13388,-7.0143 -1.54069,-2.3514 -1.62786,-3.6971 -0.46727,-7.2137 3.61313,-10.94791 27.51266,-19.31573 26.06186,-9.12492 -0.2722,1.91202 -2.4446,3.70778 -7.26335,6.00404 -3.78125,1.80186 -6.875,4.03978 -6.875,4.97308 0,1.0399 2.46413,2.1914 6.36342,2.9739 11.30647,2.2688 14.83083,6.999 10.50938,14.105 -4.00748,6.5898 -14.65603,11.472 -17.91446,8.2136 z m -137.708335,-2.1415 c -13.21902,-5.935 -15.877187,-27.24976 -4.66305,-37.39113 6.748665,-6.10308 17.788045,-2.44516 17.788045,5.89411 0,4.37051 -5.22441,12.73622 -10.07602,16.13442 -4.174555,2.9239 -2.306515,5.8374 3.74281,5.8374 3.81154,0 5.33162,0.6285 6.41471,2.6523 2.85282,5.3305 -6.17614,10.0294 -13.206495,6.8729 z m 4.415725,-31.15674 c -3.089155,-2.03284 -6.407425,2.48062 -6.407425,4.7593 0,1.90814 0.84777,4.41024 2.79644,2.46164 1.162195,-1.1622 6.471465,-5.33859 3.610985,-7.22094 z m 15.7926,32.04824 c -0.45833,-0.4584 -0.83333,-4.6667 -0.83333,-9.3518 0,-4.6852 -0.68197,-12.4954 -1.51548,-17.3561 -1.63777,-9.55074 -0.72223,-13.0838 3.39048,-13.0838 2.2173,0 2.15726,1.38907 3.56917,5.87987 0.66329,2.10966 0.28526,6.49039 2.21935,4.83037 1.18879,-1.02033 6.31587,-5.1853 7.62844,-5.39906 12.52203,-2.03929 12.08021,2.77535 2.73929,8.08402 -4.08904,2.3238 -6.84162,7.2255 -7.67605,15.808 -0.37682,3.8757 -1.54183,8.0312 -2.5889,9.2343 -1.92279,2.2094 -5.39883,2.8883 -6.93297,1.3542 z m 92.98298,-29.7118 0.50997,-5.13595 c 0.84928,-1.58691 1.73495,-4.96349 2.52497,-8.06032 1.10869,-4.3461 2.2035,-5.90039 4.79902,-6.81318 2.32896,-0.81906 3.81098,-0.73424 4.82114,0.27593 3.04107,3.04108 -5.55623,21.52862 -10.01152,21.52862 -0.63457,0 -1.82417,-0.80779 -2.64356,-1.7951 z"
       id="path3714"
       inkscape:connector-curvature="0"
       sodipodi:nodetypes="sssssssssscsscsssssssssssssssssssssssssssssssssssssssssssssssssssssssssssssssssssssssssssssccsssscc" />
    <path
       style="fill:#643f1a"
       d="m 445.52143,1048.7602 c -0.98629,-0.9862 -1.5,-6.2466 -1.5,-15.36 0,-15.7105 -2.80111,-40.93973 -5.10738,-46.00145 -1.3159,-2.8881 -1.21029,-3.74189 0.72778,-5.88343 1.24689,-1.3778 3.01067,-2.50508 3.91952,-2.50508 2.37664,0 5.14577,4.83121 6.09,10.625 1.42659,8.75353 1.67202,8.93488 5.61626,4.14984 4.98722,-6.05035 10.06182,-8.07188 15.06277,-6.00042 3.99686,1.65555 7.44105,6.82272 7.44105,11.1635 0,1.40914 0.5625,2.56204 1.25,2.56204 0.6875,0 1.25,-0.75 1.25,-1.6667 0,-0.9167 1.82813,-3.75389 4.0625,-6.30486 5.24401,-5.98706 11.27725,-7.21245 16.25039,-3.30058 5.75985,4.53069 3.60886,13.81984 -4.9377,21.32384 -5.48972,4.82 -4.76929,7.4483 2.0416,7.4483 6.4769,0 8.72018,3.319 5.19,7.6786 -1.83172,2.2621 -3.51905,2.8802 -7.57198,2.7739 -8.85895,-0.2323 -16.25533,-9.6675 -16.27784,-20.765 -0.008,-4.2162 -1.96269,-4.5262 -2.98005,-0.4727 -0.40925,1.6306 -3.03758,5.0367 -5.84073,7.5692 -4.01002,3.6228 -5.94565,4.5231 -9.07891,4.2228 l -3.98228,-0.3818 -1.27146,13.75 c -0.69931,7.5625 -1.71688,14.4532 -2.26128,15.3125 -1.25875,1.9871 -6.13008,2.0247 -8.09226,0.062 z m 18.22142,-40.9295 c 4.39449,-4.0137 5.54613,-9.29603 1.87248,-8.58854 -1.18586,0.22837 -2.80822,1.72324 -3.60523,3.32184 -0.79702,1.5987 -2.07678,3.5344 -2.8439,4.3015 -1.59563,1.5956 -1.87354,4.6447 -0.42335,4.6447 0.53429,0 2.78429,-1.6557 5,-3.6795 z m 29.05366,-5.7257 c 0.86964,-1.0478 1.24402,-2.24232 0.83196,-2.65439 -1.28007,-1.28007 -4.60704,0.63029 -4.60704,2.64539 0,2.4483 1.74721,2.4525 3.77508,0.01 z m -118.45291,30.3427 c -0.9947,-1.2595 -2.36663,-31.1165 -3.31701,-72.18746 -0.11296,-4.88152 0.23114,-5.67643 2.60334,-6.01409 4.52176,-0.64362 6.78368,4.50927 7.70065,17.54285 l 0.81585,11.59624 6.74099,0.38401 c 3.70754,0.21121 7.18315,-0.07 7.72357,-0.625 0.54043,-0.55495 1.63083,-5.78772 2.42313,-11.62836 1.59364,-11.74809 2.62322,-13.75565 7.0546,-13.75565 4.11017,0 4.72037,2.39937 3.27913,12.89378 -1.16938,8.51487 -1.08082,9.16441 1.70559,12.50929 3.11728,3.74207 2.55825,7.26967 -1.39229,8.78564 -3.04669,1.16912 -2.05951,19.27805 1.08741,19.94755 0.61718,0.1313 2.13057,-2.855 3.36309,-6.6363 2.44356,-7.49658 7.12234,-12.49996 11.68903,-12.49996 3.43859,0 11.48734,8.34336 12.69657,13.16136 2.24962,8.9632 -3.06647,17.4354 -12.99668,20.7127 -3.7256,1.2295 -4.72372,1.0604 -7.98939,-1.354 l -3.73191,-2.7591 -1.8348,2.6195 c -4.87859,6.9652 -11.16323,-1.8044 -12.7892,-17.8459 -0.61296,-6.0474 -1.6636,-11.54432 -2.33476,-12.21548 -0.67117,-0.67117 -3.97065,-1.04565 -7.33219,-0.83219 l -6.11189,0.38811 -0.34821,18.03996 c -0.2065,10.6985 -0.90465,18.7104 -1.71555,19.6875 -1.72803,2.0821 -5.37686,2.1265 -6.98907,0.085 z m 53.96866,-18.3445 c 2.53252,-2.7984 2.2201,-6.1421 -0.74855,-8.0115 -3.07656,-1.9373 -6.04228,1.1042 -6.04228,6.1966 0,3.2704 0.51979,4.2219 2.30626,4.2219 1.26845,0 3.28651,-1.0831 4.48457,-2.407 z"
       id="path3811"
       inkscape:connector-curvature="0" />
  </g>
</svg>
